<svg data-v-fda8d0f8="" width="88" height="72" viewBox="0 0 88 72" fill="none" xmlns="http://www.w3.org/2000/svg" class="security"><g data-v-fda8d0f8="" filter="url(#filter0_di-973888)"><ellipse data-v-fda8d0f8="" cx="44.0903" cy="30.8794" rx="20.7505" ry="20.7505" fill="white"></ellipse> <ellipse data-v-fda8d0f8="" cx="44.0903" cy="30.8794" rx="20.7505" ry="20.7505" fill="url(#paint0_linear-074340)"></ellipse></g> <path data-v-fda8d0f8="" d="M39.1577 54.7986C39.3018 64.1155 31.8656 71.7852 22.5487 71.9292C13.2318 72.0732 5.56211 64.6371 5.41807 55.3202C5.27404 46.0032 12.7102 38.3336 22.0271 38.1896C31.344 38.0455 39.0137 45.4816 39.1577 54.7986Z" fill="url(#paint1_radial-508487)"></path> <path data-v-fda8d0f8="" d="M86.7581 47.6743C86.6025 48.1284 86.2135 48.5458 85.5068 48.8969C84.7981 49.249 83.8137 49.511 82.5608 49.6685C80.0571 49.9834 76.5958 49.8681 72.4083 49.3379C64.0417 48.2786 52.8833 45.5774 40.9229 41.4797C28.9626 37.3821 18.492 32.6731 11.2336 28.3792C7.6008 26.2301 4.79595 24.1986 3.01137 22.4146C2.11828 21.5218 1.50133 20.7112 1.15747 19.9985C0.814558 19.2878 0.763224 18.7196 0.91881 18.2654C1.0744 17.8113 1.46339 17.394 2.1701 17.0428C2.87875 16.6907 3.86317 16.4288 5.11612 16.2712C7.61976 15.9564 11.0811 16.0717 15.2686 16.6019C23.6352 17.6612 34.7936 20.3624 46.754 24.46C58.7143 28.5577 69.1849 33.2667 76.4433 37.5606C80.0761 39.7097 82.8809 41.7412 84.6655 43.5252C85.5586 44.418 86.1756 45.2286 86.5194 45.9413C86.8623 46.652 86.9137 47.2202 86.7581 47.6743Z" stroke="url(#paint2_linear-509565)"></path> <path data-v-fda8d0f8="" d="M65.4138 15.5308C62.4569 12.4766 57.584 12.3977 54.5298 15.3546C51.4756 18.3114 51.3967 23.1844 54.3536 26.2385C57.3104 29.2927 62.1834 29.3716 65.2376 26.4148C68.2918 23.4579 68.3707 18.585 65.4138 15.5308Z" fill="url(#paint3_radial-985294)"></path> <defs data-v-fda8d0f8=""><filter data-v-fda8d0f8="" id="filter0_di-973888" x="12.7968" y="0.000313908" width="62.5871" height="62.5871" filterUnits="userSpaceOnUse" color-interpolation-filters="sRGB"><feFlood data-v-fda8d0f8="" flood-opacity="0" result="BackgroundImageFix"></feFlood> <feColorMatrix data-v-fda8d0f8="" in="SourceAlpha" type="matrix" values="0 0 0 0 0 0 0 0 0 0 0 0 0 0 0 0 0 0 127 0"></feColorMatrix> <feOffset data-v-fda8d0f8="" dy="0.41443"></feOffset> <feGaussianBlur data-v-fda8d0f8="" stdDeviation="5.27151"></feGaussianBlur> <feColorMatrix data-v-fda8d0f8="" type="matrix" values="0 0 0 0 0.556863 0 0 0 0 0.627451 0 0 0 0 1 0 0 0 0.7 0"></feColorMatrix> <feBlend data-v-fda8d0f8="" mode="normal" in2="BackgroundImageFix" result="effect1_dropShadow"></feBlend> <feBlend data-v-fda8d0f8="" mode="normal" in="SourceGraphic" in2="effect1_dropShadow" result="shape"></feBlend> <feColorMatrix data-v-fda8d0f8="" in="SourceAlpha" type="matrix" values="0 0 0 0 0 0 0 0 0 0 0 0 0 0 0 0 0 0 127 0" result="hardAlpha"></feColorMatrix> <feOffset data-v-fda8d0f8="" dy="-0.41443"></feOffset> <feGaussianBlur data-v-fda8d0f8="" stdDeviation="0.150231"></feGaussianBlur> <feComposite data-v-fda8d0f8="" in2="hardAlpha" operator="arithmetic" k2="-1" k3="1"></feComposite> <feColorMatrix data-v-fda8d0f8="" type="matrix" values="0 0 0 0 0.556863 0 0 0 0 0.627451 0 0 0 0 1 0 0 0 0.16 0"></feColorMatrix> <feBlend data-v-fda8d0f8="" mode="normal" in2="shape" result="effect2_innerShadow"></feBlend></filter> <linearGradient data-v-fda8d0f8="" id="paint0_linear-074340" x1="44.0903" y1="10.1289" x2="44.0903" y2="51.6299" gradientUnits="userSpaceOnUse"><stop data-v-fda8d0f8="" stop-color="#5ed5ab"></stop> <stop data-v-fda8d0f8="" offset="0.34375" stop-color="#A0A8FF"></stop> <stop data-v-fda8d0f8="" offset="0.947005" stop-color="#C9F2FF"></stop></linearGradient> <radialGradient data-v-fda8d0f8="" id="paint1_radial-508487" cx="0" cy="0" r="1" gradientUnits="userSpaceOnUse" gradientTransform="translate(15.9572 60.205) rotate(-43.7151) scale(25.9976 33.5025)"><stop data-v-fda8d0f8="" offset="0.581217" stop-color="#2B152F"></stop> <stop data-v-fda8d0f8="" offset="0.753744" stop-color="#413686"></stop> <stop data-v-fda8d0f8="" offset="0.963759" stop-color="#5CB1E0"></stop></radialGradient> <linearGradient data-v-fda8d0f8="" id="paint2_linear-509565" x1="45" y1="41" x2="49.5" y2="28" gradientUnits="userSpaceOnUse"><stop data-v-fda8d0f8="" stop-color="#F3FCFF"></stop> <stop data-v-fda8d0f8="" offset="0.47974" stop-color="#654BAE"></stop> <stop data-v-fda8d0f8="" offset="1" stop-color="#303261" stop-opacity="0"></stop></linearGradient> <radialGradient data-v-fda8d0f8="" id="paint3_radial-985294" cx="0" cy="0" r="1" gradientUnits="userSpaceOnUse" gradientTransform="translate(69.7518 16.535) rotate(148.456) scale(18.248)"><stop data-v-fda8d0f8="" offset="0.357721" stop-color="#171717"></stop> <stop data-v-fda8d0f8="" offset="0.703125" stop-color="#261C33"></stop> <stop data-v-fda8d0f8="" offset="0.866261" stop-color="#582A60"></stop></radialGradient></defs></svg>